<svg width="100" height="90" style="overflow:visible" viewBox="0 0 377.85 215.07" class="fl-svgdocument" xmlns="http://www.w3.org/2000/svg"><path d="M323.3 83.86s1.68-10.04 1.51-12.72c-.16-2.68-23.42-4.35-39.14-5.69a155.2 155.2 0 0 0-20.24-.44l.16.08c.08.02.15.03.17.06.02.03-.04.01-.17-.06a9.29 9.29 0 0 0-1.6 0c-2.84.16-4.42.36-4.42.36l-.05-.02c-4.21.4-9.02.98-9.02.98L227.5 50.6l.57-1.37-2.62-1.34s-5.69-3.52-23.76-3.35c-18.06.17-31.45 4.52-31.45 4.52S123.9 64.78 123.4 65.12c-.5.33-25.1 2.68-25.1 2.68s-8.03 20.07 3.18 27.93l24.26 2.51 2.3.16a18.57 18.57 0 1 1 35.73 2.39l4.46.3 99.21-.86 5.38-.22a18.54 18.54 0 0 1 17.79-23.88 18.57 18.57 0 0 1 18.26 21.89l1.06-.11c9.04-1 12.55-3.85 12.55-3.85v-5.52l3.18-.34v-4.19zM146.25 64.29v-1.33l3.94-1.2.4 2.53zm8.1.29-.64-3.88 2.9-.88.7 4.76zm65.08-14.52 21.24 16.56h-57.55l-4.18-13.38s20.58-5.52 40.49-3.18zm-49.93 5.87 3.01 9.03-4.48-.11-1.95-7.89zm-9.7 2.93 3.3-1 1.38 6.9-3.35-.09zm75.6 34-21.5.27c-3.58.04-7.16.1-10.74.1l-10.75.05-21.5.09h-.95l-.04-1-.06-1.65c-.06-.54-.08-1.1-.18-1.63a16.8 16.8 0 0 0-.28-1.62c-.1-.53-.28-1.05-.42-1.58-.18-.5-.34-1.02-.56-1.52a13.53 13.53 0 0 0-2.51-4l-1.66-1.65 2.3-.02 19.78-.17 9.9-.07H216c3.3 0 6.6-.02 9.9.02 6.59.06 13.18.07 19.78.18-6.6.29-13.18.47-19.78.7-3.3.11-6.59.18-9.89.26l-9.89.25-9.89.25-9.89.17-17.79.3a15.45 15.45 0 0 1 1.66 3.01c.25.55.44 1.12.65 1.7.16.57.35 1.15.46 1.74.15.58.25 1.17.34 1.77.1.59.12 1.19.18 1.78l.02.8 20.54.08 10.74.05c3.59 0 7.17.07 10.75.1l21.5.28c7.17.16 14.33.26 21.5.47-7.17.23-14.33.32-21.5.48z" fill="#FFFFFF" data-uid="o_ekgc06852_7" style="stroke-width:1.00378"/><g data-uid="o_ekgc06852_8" fill="#dee2e6"><path d="M146.54 78.16a15.9 15.9 0 1 0 0 31.79 15.9 15.9 0 0 0 0-31.79zm0 22.58a6.7 6.7 0 1 1 0-13.38 6.7 6.7 0 0 1 0 13.38z" data-uid="o_ekgc06852_9"/><path d="M291.08 78.16a15.9 15.9 0 1 0 0 31.79 15.9 15.9 0 0 0 0-31.79zm0 22.59a6.7 6.7 0 1 1 0-13.39 6.7 6.7 0 0 1 0 13.39z" data-uid="o_ekgc06852_10"/><path fill-rule="evenodd" clip-rule="evenodd" d="M119.62 49.26c-.12-4.02-3.86-4.04-5.56-1.32-2.39 3.78.34 8.38 3.83 10.25a9.37 9.37 0 0 0 8.37.43c12.33-5.68 7.58-24.1-6.75-22.68-22.47 2.22-28.23 32.94-6.02 43.79 0 0-16.2-15.99-3.04-28.4.16-4.48 3.53-8.15 7.15-7.48 5.64 1.04 2.08 7.38 2.02 5.4z" data-uid="o_ekgc06852_11"/><path fill-rule="evenodd" clip-rule="evenodd" d="M110.94 53.28c.12.06 0 3.66 5.55 6.75-.4.3-4.94 17.68 18.88 24.71-17.73-1.48-25.51-10.41-27.37-17.52-2.1-8.06 2.88-13.97 2.94-13.94z" data-uid="o_ekgc06852_12"/><path fill-rule="evenodd" clip-rule="evenodd" d="M115.45 34.91s-7.1-1.66-13 .73C90.81 40.37 87 58.14 93.56 68.9c3.96 6.49 11.67 10.76 16.35 11.11-12.45-6.72-14.04-21.05-12.2-27.4 3.42-11.8 10.76-15.6 17.74-17.7z" data-uid="o_ekgc06852_13"/><path fill-rule="evenodd" clip-rule="evenodd" d="M119.03 34.08s-5.29-2.35-7-9.58c0 0-19.64-5.12-27.22 17.44 0 0-8.2 24.95 14.06 35.77-10.26-8.23-12.47-20.48-8.9-30.75 3.68-10.59 14.92-18.98 29.06-12.88z" data-uid="o_ekgc06852_14"/><path fill-rule="evenodd" clip-rule="evenodd" d="M111.7 22.33s.28-5.03 3.77-7.11C89.27-.12 53.37 65.59 103.14 84.9 82.67 75.34 75.47 53.4 86 34.4c4.47-8.07 14.32-14.43 25.7-12.07z" data-uid="o_ekgc06852_15"/><path fill-rule="evenodd" clip-rule="evenodd" d="M116.94 13.65c.32.22.76.15 1.28.15 4.97-.04 7.38 3.3 5.98 7.67-1.6-11.2-16.65-3.39-8.8 6.84 5.11 6.64 13.78 5.82 19.74-.35 11.8-12.27-1.11-25.64-14.46-27.62-8.03-1.19-26-.56-41.31 23.54 0 0-16.53 24 .05 48.77 8.68 12.98 27.35 19.75 42.06 20.58 0 0-41.58-6.85-45.17-35.7-1.56-11.29 2.29-26.69 11.05-36.52 7.52-8.44 19-14.48 29.58-7.36z" data-uid="o_ekgc06852_16"/><path fill-rule="evenodd" clip-rule="evenodd" d="M77.37 22.3c-15.8 31.05-5.2 62.7 34.3 72.56-32.38 3.5-54.34-34.95-46.53-65.53 0 0 8.95-9.44-1.61-11.23 0 0 5.14 2.13 2.94 6.6a8.21 8.21 0 0 1-9.5 4.14c-10.04-2.97-7.31-16.81 1.19-20.72 3.82-1.76 9.59-.94 13.07 1.8 5.24 4.13 6.19 12.3 6.14 12.39z" data-uid="o_ekgc06852_17"/><path fill-rule="evenodd" clip-rule="evenodd" d="M149.06 90.43c-1.84-.74-36.96 13.69-59.37 1.85-17.68-9.33-31.32-32.13-26.8-62-1 1.14-4.69.82-4.56.54-6.68 16.7-1.7 36.1 7.8 50.7 26.85 41.3 84.71 9.63 82.93 8.9z" data-uid="o_ekgc06852_18"/><path fill-rule="evenodd" clip-rule="evenodd" d="M52.58 27.79s1.4 1.96 4.49 2.53c.33-.11-1.4 3.04-2.47 8.42-.76-4.74-2.46-10.8-2.02-10.95z" data-uid="o_ekgc06852_19"/><path fill-rule="evenodd" clip-rule="evenodd" d="M28.26 25.94c-2.77-7.62 4.66-11.66 11.14-8.83 5.37 2.33 9.82 9.54 9.75 21.84-.07 15.06 4.18 38.23 15.65 45.6 0 0-12.49-20.68-12.46-42.39-.23-9.75-.9-25.1-9.82-30.3-8.34-4.87-17.35-.02-20.65 7.89-2.6 6.23-.27 18.13 7.79 17.58 10.66-.73 8.98-13.02 1.94-12.85-1.03.02-2.13.62-3.34 1.46z" data-uid="o_ekgc06852_20"/><path fill-rule="evenodd" clip-rule="evenodd" d="M29.54 23.33c-.17.16 2.42-7.74 9.49-4.33 7.97 3.86 8 14.7 8.5 26.53.35 8.54 2.07 18.33 6.39 27.54 0 0-16.03-23.38-16.53-37.04 5.66-10.81-5.33-15.07-7.85-12.7z" data-uid="o_ekgc06852_21"/><path fill-rule="evenodd" clip-rule="evenodd" d="M30.07 39.74s1.57 9.27 7.7 21.16c5.94 11.52 16.21 25.57 30.03 31.24-14.43-13.6-28.9-34.76-32-54.22-2.62 2.25-5.87 1.79-5.73 1.82z" data-uid="o_ekgc06852_22"/><path fill-rule="evenodd" clip-rule="evenodd" d="M204.83 85.48c-25.87-15.98-59.63 14.07-79.96 17.1-4.53.99-5.03 6.37 2.45 5.58 2.3-.25 13.08-3.8 26.88-12.51 29.35-18.54 50.87-10.02 50.63-10.17z" data-uid="o_ekgc06852_23"/><path fill-rule="evenodd" clip-rule="evenodd" d="M152.32 98.67s-15.85 11.14-24.4 11.34c-2.64.06-4.75.31-6.24 1.45-2.97 2.28-1.75 5.23 1.4 5.9 10.35 2.19 23.83-12.7 29.24-18.69z" data-uid="o_ekgc06852_24"/><path fill-rule="evenodd" clip-rule="evenodd" d="M200.44 89.86s-25.03-.87-34.35 13.81c-3.49 5.52-3.09 13.49 5.39 15.1 0 0 8.72 1.4 11.57-8.2 1.12-6.93-7.4-8-9.7-2.02-.62 1.61-.66 3.5 1.68 4.63-9.85-.82-6.58-9.02 1-13.9 7.86-5.07 20.28-9.09 24.4-9.42z" data-uid="o_ekgc06852_25"/><path fill-rule="evenodd" clip-rule="evenodd" d="M172.8 106.16s3.14-3.92 7.07-2.92c0 0 3.2-5.39 9.72-7.69-4.18-.92-18.65 6.97-16.78 10.61z" data-uid="o_ekgc06852_26"/></g><path fill="#dee2e6" text-anchor="middle" font-size="100" letter-spacing="0" font-family="'Fugaz One'" data-uid="o_ekgc06852_27" d="M35.47 148.29q8.82 0 12.2 4.67 2.42 3.2 2.42 8.13 0 2-.44 4.24l-1.73 10.12q-1.47 8.22-6.31 12.5-4.85 4.28-12.11 4.28-7.27 0-10.12-3.89l-4.67 26.73H0l11.6-65.66H24.9l-.43 2.34q4.07-3.46 10.99-3.46zm-9 31.49q2.42 0 4.5-1.56 2.07-1.56 2.6-4.67l1.12-6.49q.17-.86.17-2.16 0-1.3-1.12-2.77-1.13-1.47-3.9-1.47-4.5 0-5.88 2.16l-2.6 14.54q1.22 2.42 5.11 2.42zm47.06.17q1.99 0 3.55-.86l-.44 9.77q-4.06 3.37-9.25 3.37-7.87 0-10.21-3.63-1.56-2.42-1.56-5.15 0-2.72.35-4.8l5.19-29.24h14.7l-4.84 27.25q-.09.52-.09.95 0 2.34 2.6 2.34zm-10.64-44.64q0-5.53 2.46-8.08 2.47-2.56 7.66-2.56 7.27 0 7.27 6.4 0 5.46-2.47 7.96-2.46 2.51-7.74 2.51-7.18 0-7.18-6.23zm36.94 56.92q-18 0-18-12.45 0-1.73.35-3.72L84 165.33q1.38-8.3 7.56-12.72 6.19-4.4 15.7-4.5 18.43 0 18.43 12.8 0 2.78-.65 4.98-.65 2.2-1.34 2.99l-.7.86h-14.7q2.17-1.9 2.17-4.5 0-4.67-4.68-4.67-2.76 0-4.75 1.65-2 1.64-2.6 5.01l-1.12 6.32q-.18.86-.18 1.64 0 4.59 5.71 4.59 1.9 0 3.42-1.21 1.51-1.21 1.77-2.69l14.36.18q-2.85 16.17-22.57 16.17zm71.54-12.28q1.98 0 3.54-.86l-.43 9.77q-4.07 3.37-9.95 3.37-5.88 0-8.7-3.11-2.8-3.11-4.36-10.47l-.26-1.2q-1.82.25-5.45.42l-2.34 13.15h-14.7l11.59-65.65h14.7L150 153.83q5.1-5.63 13.84-5.63 5.88 0 8.7 2.9 2.8 2.9 2.8 7.74 0 9.35-9.77 14.62l.95 3.2q.95 3.29 4.85 3.29zm-14.97-19.98q-4.67 0-8.3 4.4l-.96 5.72q12.8-.52 12.8-6.84 0-1.47-.9-2.37-.91-.91-2.64-.91zm65.57 17.73q0 2.25 2.3 2.25 2.29 0 3.84-.86l-.43 9.77q-4.15 3.37-9.34 3.37-9.52 0-10.56-6.92-4.32 6.92-12.71 6.92-14.19 0-14.19-12.2 0-2.07.43-4.58l1.82-10.12q1.38-7.78 6.36-12.41 4.97-4.63 12.97-4.63t10.86 3.72l.43-2.6h13.15l-4.84 27.25q-.09.52-.09 1.04zm-24.48-10.64-1.12 6.49q-.18.78-.18 2.16 0 1.39 1.3 2.73t4.37 1.34q3.07 0 5.32-2.42l2.6-14.54q-.96-2.16-4.5-2.16-6.67 0-7.79 6.4zm77.68 10.64q0 2.25 2.3 2.25 2.29 0 3.84-.86l-.43 9.77q-4.15 3.37-9.34 3.37-9.78 0-10.64-7.52-5.2 7.52-13.97 7.52-8.78 0-11.38-3.98-1.73-2.5-1.73-5.7t.52-5.89l4.84-27.25h14.71l-4.07 23.01q-.25 1.56-.25 3.12 0 4.15 4.67 4.15 3.89 0 6.22-2.68l4.94-27.6h14.7l-4.84 27.25q-.09.52-.09 1.04zm30.02 14.53q-10.04 0-14.45-4.5-3.29-3.28-3.29-8.82 0-1.81.35-3.89l5.88-33.48 15.83-6.57-2.5 14.44h23.87l-2.16 12.2h-23.88l-1.73 9.78q-.34 1.64-.34 2.94 0 5.45 5.19 5.45 2.76 0 4.62-2.34 1.86-2.33 2.56-6.23h14.36q-3.64 21.02-24.31 21.02zm54.84-44.03q9.34 0 14.1 4.07 3.72 3.2 3.72 8.9 0 1.91-.43 4.16l-1.82 10.12q-1.64 9.17-7.65 12.98-6.02 3.8-16.05 3.8-10.03 0-14.7-3.8-3.47-2.86-3.47-8.57 0-1.99.44-4.4l1.81-10.13q3.03-17.13 24.05-17.13zm1.21 25.35 1.13-6.49q.17-.86.17-2.2 0-1.35-1.12-2.99-1.13-1.64-3.94-1.64t-4.71 1.86q-1.9 1.86-2.43 4.97l-1.12 6.49q-.17.86-.17 2.2 0 1.35 1.12 2.9 1.12 1.56 3.94 1.56 2.8 0 4.71-1.95 1.9-1.94 2.42-4.71z" style="stroke-width:.865045"/></svg>